<svg width="1128" height="204" viewBox="0 0 1128 204" fill="none" xmlns="http://www.w3.org/2000/svg">
<path d="M476.978 21.024H470.69L469.682 24H465.386L471.482 7.152H476.234L482.33 24H477.986L476.978 21.024ZM475.922 17.856L473.834 11.688L471.77 17.856H475.922ZM489.249 12.504C489.649 11.88 490.201 11.376 490.905 10.992C491.609 10.608 492.433 10.416 493.377 10.416C494.481 10.416 495.481 10.696 496.377 11.256C497.273 11.816 497.977 12.616 498.489 13.656C499.017 14.696 499.281 15.904 499.281 17.28C499.281 18.656 499.017 19.872 498.489 20.928C497.977 21.968 497.273 22.776 496.377 23.352C495.481 23.912 494.481 24.192 493.377 24.192C492.449 24.192 491.625 24 490.905 23.616C490.201 23.232 489.649 22.736 489.249 22.128V30.384H485.145V10.608H489.249V12.504ZM495.105 17.28C495.105 16.256 494.817 15.456 494.241 14.88C493.681 14.288 492.985 13.992 492.153 13.992C491.337 13.992 490.641 14.288 490.065 14.88C489.505 15.472 489.225 16.28 489.225 17.304C489.225 18.328 489.505 19.136 490.065 19.728C490.641 20.32 491.337 20.616 492.153 20.616C492.969 20.616 493.665 20.32 494.241 19.728C494.817 19.12 495.105 18.304 495.105 17.28ZM506.498 12.84C506.978 12.104 507.578 11.528 508.298 11.112C509.018 10.68 509.818 10.464 510.698 10.464V14.808H509.57C508.546 14.808 507.778 15.032 507.266 15.48C506.754 15.912 506.498 16.68 506.498 17.784V24H502.394V10.608H506.498V12.84ZM526.244 17.088C526.244 17.472 526.22 17.872 526.172 18.288H516.884C516.948 19.12 517.212 19.76 517.676 20.208C518.156 20.64 518.74 20.856 519.428 20.856C520.452 20.856 521.164 20.424 521.564 19.56H525.932C525.708 20.44 525.3 21.232 524.708 21.936C524.132 22.64 523.404 23.192 522.524 23.592C521.644 23.992 520.66 24.192 519.572 24.192C518.26 24.192 517.092 23.912 516.068 23.352C515.044 22.792 514.244 21.992 513.668 20.952C513.092 19.912 512.804 18.696 512.804 17.304C512.804 15.912 513.084 14.696 513.644 13.656C514.22 12.616 515.02 11.816 516.044 11.256C517.068 10.696 518.244 10.416 519.572 10.416C520.868 10.416 522.02 10.688 523.028 11.232C524.036 11.776 524.82 12.552 525.38 13.56C525.956 14.568 526.244 15.744 526.244 17.088ZM522.044 16.008C522.044 15.304 521.804 14.744 521.324 14.328C520.844 13.912 520.244 13.704 519.524 13.704C518.836 13.704 518.252 13.904 517.772 14.304C517.308 14.704 517.02 15.272 516.908 16.008H522.044ZM537.529 10.464C539.097 10.464 540.345 10.976 541.273 12C542.217 13.008 542.689 14.4 542.689 16.176V24H538.609V16.728C538.609 15.832 538.377 15.136 537.913 14.64C537.449 14.144 536.825 13.896 536.041 13.896C535.257 13.896 534.633 14.144 534.169 14.64C533.705 15.136 533.473 15.832 533.473 16.728V24H529.369V10.608H533.473V12.384C533.889 11.792 534.449 11.328 535.153 10.992C535.857 10.64 536.649 10.464 537.529 10.464ZM545.685 17.28C545.685 15.904 545.941 14.696 546.453 13.656C546.981 12.616 547.693 11.816 548.589 11.256C549.485 10.696 550.485 10.416 551.589 10.416C552.469 10.416 553.269 10.6 553.989 10.968C554.725 11.336 555.301 11.832 555.717 12.456V6.24H559.821V24H555.717V22.08C555.333 22.72 554.781 23.232 554.061 23.616C553.357 24 552.533 24.192 551.589 24.192C550.485 24.192 549.485 23.912 548.589 23.352C547.693 22.776 546.981 21.968 546.453 20.928C545.941 19.872 545.685 18.656 545.685 17.28ZM555.717 17.304C555.717 16.28 555.429 15.472 554.853 14.88C554.293 14.288 553.605 13.992 552.789 13.992C551.973 13.992 551.277 14.288 550.701 14.88C550.141 15.456 549.861 16.256 549.861 17.28C549.861 18.304 550.141 19.12 550.701 19.728C551.277 20.32 551.973 20.616 552.789 20.616C553.605 20.616 554.293 20.32 554.853 19.728C555.429 19.136 555.717 18.328 555.717 17.304ZM565.814 9.216C565.094 9.216 564.502 9.008 564.038 8.592C563.59 8.16 563.366 7.632 563.366 7.008C563.366 6.368 563.59 5.84 564.038 5.424C564.502 4.992 565.094 4.776 565.814 4.776C566.518 4.776 567.094 4.992 567.542 5.424C568.006 5.84 568.238 6.368 568.238 7.008C568.238 7.632 568.006 8.16 567.542 8.592C567.094 9.008 566.518 9.216 565.814 9.216ZM567.854 10.608V24H563.75V10.608H567.854ZM575.628 20.616H581.436V24H571.044V20.736L576.612 13.992H571.092V10.608H581.316V13.872L575.628 20.616ZM583.838 17.28C583.838 15.904 584.094 14.696 584.606 13.656C585.134 12.616 585.846 11.816 586.742 11.256C587.638 10.696 588.638 10.416 589.742 10.416C590.686 10.416 591.51 10.608 592.214 10.992C592.934 11.376 593.486 11.88 593.87 12.504V10.608H597.974V24H593.87V22.104C593.47 22.728 592.91 23.232 592.19 23.616C591.486 24 590.662 24.192 589.718 24.192C588.63 24.192 587.638 23.912 586.742 23.352C585.846 22.776 585.134 21.968 584.606 20.928C584.094 19.872 583.838 18.656 583.838 17.28ZM593.87 17.304C593.87 16.28 593.582 15.472 593.006 14.88C592.446 14.288 591.758 13.992 590.942 13.992C590.126 13.992 589.43 14.288 588.854 14.88C588.294 15.456 588.014 16.256 588.014 17.28C588.014 18.304 588.294 19.12 588.854 19.728C589.43 20.32 590.126 20.616 590.942 20.616C591.758 20.616 592.446 20.32 593.006 19.728C593.582 19.136 593.87 18.328 593.87 17.304ZM601.087 17.28C601.087 15.904 601.343 14.696 601.855 13.656C602.383 12.616 603.095 11.816 603.991 11.256C604.887 10.696 605.887 10.416 606.991 10.416C607.871 10.416 608.671 10.6 609.391 10.968C610.127 11.336 610.703 11.832 611.119 12.456V6.24H615.223V24H611.119V22.08C610.735 22.72 610.183 23.232 609.463 23.616C608.759 24 607.935 24.192 606.991 24.192C605.887 24.192 604.887 23.912 603.991 23.352C603.095 22.776 602.383 21.968 601.855 20.928C601.343 19.872 601.087 18.656 601.087 17.28ZM611.119 17.304C611.119 16.28 610.831 15.472 610.255 14.88C609.695 14.288 609.007 13.992 608.191 13.992C607.375 13.992 606.679 14.288 606.103 14.88C605.543 15.456 605.263 16.256 605.263 17.28C605.263 18.304 605.543 19.12 606.103 19.728C606.679 20.32 607.375 20.616 608.191 20.616C609.007 20.616 609.695 20.32 610.255 19.728C610.831 19.136 611.119 18.328 611.119 17.304ZM625.248 24.192C623.936 24.192 622.752 23.912 621.696 23.352C620.656 22.792 619.832 21.992 619.224 20.952C618.632 19.912 618.336 18.696 618.336 17.304C618.336 15.928 618.64 14.72 619.248 13.68C619.856 12.624 620.688 11.816 621.744 11.256C622.8 10.696 623.984 10.416 625.296 10.416C626.608 10.416 627.792 10.696 628.848 11.256C629.904 11.816 630.736 12.624 631.344 13.68C631.952 14.72 632.256 15.928 632.256 17.304C632.256 18.68 631.944 19.896 631.32 20.952C630.712 21.992 629.872 22.792 628.8 23.352C627.744 23.912 626.56 24.192 625.248 24.192ZM625.248 20.64C626.032 20.64 626.696 20.352 627.24 19.776C627.8 19.2 628.08 18.376 628.08 17.304C628.08 16.232 627.808 15.408 627.264 14.832C626.736 14.256 626.08 13.968 625.296 13.968C624.496 13.968 623.832 14.256 623.304 14.832C622.776 15.392 622.512 16.216 622.512 17.304C622.512 18.376 622.768 19.2 623.28 19.776C623.808 20.352 624.464 20.64 625.248 20.64ZM479.33 40.576C479.33 41.552 479.106 42.448 478.658 43.264C478.21 44.064 477.522 44.712 476.594 45.208C475.666 45.704 474.514 45.952 473.138 45.952H470.594V52H466.49V35.152H473.138C474.482 35.152 475.618 35.384 476.546 35.848C477.474 36.312 478.17 36.952 478.634 37.768C479.098 38.584 479.33 39.52 479.33 40.576ZM472.826 42.688C473.61 42.688 474.194 42.504 474.578 42.136C474.962 41.768 475.154 41.248 475.154 40.576C475.154 39.904 474.962 39.384 474.578 39.016C474.194 38.648 473.61 38.464 472.826 38.464H470.594V42.688H472.826ZM486.531 40.84C487.011 40.104 487.611 39.528 488.331 39.112C489.051 38.68 489.851 38.464 490.731 38.464V42.808H489.603C488.579 42.808 487.811 43.032 487.299 43.48C486.787 43.912 486.531 44.68 486.531 45.784V52H482.427V38.608H486.531V40.84ZM492.836 45.28C492.836 43.904 493.092 42.696 493.604 41.656C494.132 40.616 494.844 39.816 495.74 39.256C496.636 38.696 497.636 38.416 498.74 38.416C499.684 38.416 500.508 38.608 501.212 38.992C501.932 39.376 502.484 39.88 502.868 40.504V38.608H506.972V52H502.868V50.104C502.468 50.728 501.908 51.232 501.188 51.616C500.484 52 499.66 52.192 498.716 52.192C497.628 52.192 496.636 51.912 495.74 51.352C494.844 50.776 494.132 49.968 493.604 48.928C493.092 47.872 492.836 46.656 492.836 45.28ZM502.868 45.304C502.868 44.28 502.58 43.472 502.004 42.88C501.444 42.288 500.756 41.992 499.94 41.992C499.124 41.992 498.428 42.288 497.852 42.88C497.292 43.456 497.012 44.256 497.012 45.28C497.012 46.304 497.292 47.12 497.852 47.728C498.428 48.32 499.124 48.616 499.94 48.616C500.756 48.616 501.444 48.32 502.004 47.728C502.58 47.136 502.868 46.328 502.868 45.304ZM503.18 35.272L497.396 37.696V34.864L503.18 32.08V35.272ZM518.365 48.52V52H516.277C514.789 52 513.629 51.64 512.797 50.92C511.965 50.184 511.549 48.992 511.549 47.344V42.016H509.917V38.608H511.549V35.344H515.653V38.608H518.341V42.016H515.653V47.392C515.653 47.792 515.749 48.08 515.941 48.256C516.133 48.432 516.453 48.52 516.901 48.52H518.365ZM523.675 37.216C522.955 37.216 522.363 37.008 521.899 36.592C521.451 36.16 521.227 35.632 521.227 35.008C521.227 34.368 521.451 33.84 521.899 33.424C522.363 32.992 522.955 32.776 523.675 32.776C524.379 32.776 524.955 32.992 525.403 33.424C525.867 33.84 526.099 34.368 526.099 35.008C526.099 35.632 525.867 36.16 525.403 36.592C524.955 37.008 524.379 37.216 523.675 37.216ZM525.715 38.608V52H521.611V38.608H525.715ZM528.833 45.304C528.833 43.912 529.113 42.696 529.673 41.656C530.249 40.616 531.041 39.816 532.049 39.256C533.073 38.696 534.241 38.416 535.553 38.416C537.233 38.416 538.633 38.856 539.753 39.736C540.889 40.616 541.633 41.856 541.985 43.456H537.617C537.249 42.432 536.537 41.92 535.481 41.92C534.729 41.92 534.129 42.216 533.681 42.808C533.233 43.384 533.009 44.216 533.009 45.304C533.009 46.392 533.233 47.232 533.681 47.824C534.129 48.4 534.729 48.688 535.481 48.688C536.537 48.688 537.249 48.176 537.617 47.152H541.985C541.633 48.72 540.889 49.952 539.753 50.848C538.617 51.744 537.217 52.192 535.553 52.192C534.241 52.192 533.073 51.912 532.049 51.352C531.041 50.792 530.249 49.992 529.673 48.952C529.113 47.912 528.833 46.696 528.833 45.304ZM551.237 52.192C549.925 52.192 548.741 51.912 547.685 51.352C546.645 50.792 545.821 49.992 545.213 48.952C544.621 47.912 544.325 46.696 544.325 45.304C544.325 43.928 544.629 42.72 545.237 41.68C545.845 40.624 546.677 39.816 547.733 39.256C548.789 38.696 549.973 38.416 551.285 38.416C552.597 38.416 553.781 38.696 554.837 39.256C555.893 39.816 556.725 40.624 557.333 41.68C557.941 42.72 558.245 43.928 558.245 45.304C558.245 46.68 557.933 47.896 557.309 48.952C556.701 49.992 555.861 50.792 554.789 51.352C553.733 51.912 552.549 52.192 551.237 52.192ZM551.237 48.64C552.021 48.64 552.685 48.352 553.229 47.776C553.789 47.2 554.069 46.376 554.069 45.304C554.069 44.232 553.797 43.408 553.253 42.832C552.725 42.256 552.069 41.968 551.285 41.968C550.485 41.968 549.821 42.256 549.293 42.832C548.765 43.392 548.501 44.216 548.501 45.304C548.501 46.376 548.757 47.2 549.269 47.776C549.797 48.352 550.453 48.64 551.237 48.64Z" fill="#18185C"/>
<path d="M248.978 21.024H242.69L241.682 24H237.386L243.482 7.152H248.234L254.33 24H249.986L248.978 21.024ZM247.922 17.856L245.834 11.688L243.77 17.856H247.922ZM261.249 12.504C261.649 11.88 262.201 11.376 262.905 10.992C263.609 10.608 264.433 10.416 265.377 10.416C266.481 10.416 267.481 10.696 268.377 11.256C269.273 11.816 269.977 12.616 270.489 13.656C271.017 14.696 271.281 15.904 271.281 17.28C271.281 18.656 271.017 19.872 270.489 20.928C269.977 21.968 269.273 22.776 268.377 23.352C267.481 23.912 266.481 24.192 265.377 24.192C264.449 24.192 263.625 24 262.905 23.616C262.201 23.232 261.649 22.736 261.249 22.128V30.384H257.145V10.608H261.249V12.504ZM267.105 17.28C267.105 16.256 266.817 15.456 266.241 14.88C265.681 14.288 264.985 13.992 264.153 13.992C263.337 13.992 262.641 14.288 262.065 14.88C261.505 15.472 261.225 16.28 261.225 17.304C261.225 18.328 261.505 19.136 262.065 19.728C262.641 20.32 263.337 20.616 264.153 20.616C264.969 20.616 265.665 20.32 266.241 19.728C266.817 19.12 267.105 18.304 267.105 17.28ZM278.498 12.84C278.978 12.104 279.578 11.528 280.298 11.112C281.018 10.68 281.818 10.464 282.698 10.464V14.808H281.57C280.546 14.808 279.778 15.032 279.266 15.48C278.754 15.912 278.498 16.68 278.498 17.784V24H274.394V10.608H278.498V12.84ZM298.244 17.088C298.244 17.472 298.22 17.872 298.172 18.288H288.884C288.948 19.12 289.212 19.76 289.676 20.208C290.156 20.64 290.74 20.856 291.428 20.856C292.452 20.856 293.164 20.424 293.564 19.56H297.932C297.708 20.44 297.3 21.232 296.708 21.936C296.132 22.64 295.404 23.192 294.524 23.592C293.644 23.992 292.66 24.192 291.572 24.192C290.26 24.192 289.092 23.912 288.068 23.352C287.044 22.792 286.244 21.992 285.668 20.952C285.092 19.912 284.804 18.696 284.804 17.304C284.804 15.912 285.084 14.696 285.644 13.656C286.22 12.616 287.02 11.816 288.044 11.256C289.068 10.696 290.244 10.416 291.572 10.416C292.868 10.416 294.02 10.688 295.028 11.232C296.036 11.776 296.82 12.552 297.38 13.56C297.956 14.568 298.244 15.744 298.244 17.088ZM294.044 16.008C294.044 15.304 293.804 14.744 293.324 14.328C292.844 13.912 292.244 13.704 291.524 13.704C290.836 13.704 290.252 13.904 289.772 14.304C289.308 14.704 289.02 15.272 288.908 16.008H294.044ZM309.529 10.464C311.097 10.464 312.345 10.976 313.273 12C314.217 13.008 314.689 14.4 314.689 16.176V24H310.609V16.728C310.609 15.832 310.377 15.136 309.913 14.64C309.449 14.144 308.825 13.896 308.041 13.896C307.257 13.896 306.633 14.144 306.169 14.64C305.705 15.136 305.473 15.832 305.473 16.728V24H301.369V10.608H305.473V12.384C305.889 11.792 306.449 11.328 307.153 10.992C307.857 10.64 308.649 10.464 309.529 10.464ZM317.685 17.28C317.685 15.904 317.941 14.696 318.453 13.656C318.981 12.616 319.693 11.816 320.589 11.256C321.485 10.696 322.485 10.416 323.589 10.416C324.469 10.416 325.269 10.6 325.989 10.968C326.725 11.336 327.301 11.832 327.717 12.456V6.24H331.821V24H327.717V22.08C327.333 22.72 326.781 23.232 326.061 23.616C325.357 24 324.533 24.192 323.589 24.192C322.485 24.192 321.485 23.912 320.589 23.352C319.693 22.776 318.981 21.968 318.453 20.928C317.941 19.872 317.685 18.656 317.685 17.28ZM327.717 17.304C327.717 16.28 327.429 15.472 326.853 14.88C326.293 14.288 325.605 13.992 324.789 13.992C323.973 13.992 323.277 14.288 322.701 14.88C322.141 15.456 321.861 16.256 321.861 17.28C321.861 18.304 322.141 19.12 322.701 19.728C323.277 20.32 323.973 20.616 324.789 20.616C325.605 20.616 326.293 20.32 326.853 19.728C327.429 19.136 327.717 18.328 327.717 17.304ZM337.814 9.216C337.094 9.216 336.502 9.008 336.038 8.592C335.59 8.16 335.366 7.632 335.366 7.008C335.366 6.368 335.59 5.84 336.038 5.424C336.502 4.992 337.094 4.776 337.814 4.776C338.518 4.776 339.094 4.992 339.542 5.424C340.006 5.84 340.238 6.368 340.238 7.008C340.238 7.632 340.006 8.16 339.542 8.592C339.094 9.008 338.518 9.216 337.814 9.216ZM339.854 10.608V24H335.75V10.608H339.854ZM347.628 20.616H353.436V24H343.044V20.736L348.612 13.992H343.092V10.608H353.316V13.872L347.628 20.616ZM355.838 17.28C355.838 15.904 356.094 14.696 356.606 13.656C357.134 12.616 357.846 11.816 358.742 11.256C359.638 10.696 360.638 10.416 361.742 10.416C362.686 10.416 363.51 10.608 364.214 10.992C364.934 11.376 365.486 11.88 365.87 12.504V10.608H369.974V24H365.87V22.104C365.47 22.728 364.91 23.232 364.19 23.616C363.486 24 362.662 24.192 361.718 24.192C360.63 24.192 359.638 23.912 358.742 23.352C357.846 22.776 357.134 21.968 356.606 20.928C356.094 19.872 355.838 18.656 355.838 17.28ZM365.87 17.304C365.87 16.28 365.582 15.472 365.006 14.88C364.446 14.288 363.758 13.992 362.942 13.992C362.126 13.992 361.43 14.288 360.854 14.88C360.294 15.456 360.014 16.256 360.014 17.28C360.014 18.304 360.294 19.12 360.854 19.728C361.43 20.32 362.126 20.616 362.942 20.616C363.758 20.616 364.446 20.32 365.006 19.728C365.582 19.136 365.87 18.328 365.87 17.304ZM373.087 17.28C373.087 15.904 373.343 14.696 373.855 13.656C374.383 12.616 375.095 11.816 375.991 11.256C376.887 10.696 377.887 10.416 378.991 10.416C379.871 10.416 380.671 10.6 381.391 10.968C382.127 11.336 382.703 11.832 383.119 12.456V6.24H387.223V24H383.119V22.08C382.735 22.72 382.183 23.232 381.463 23.616C380.759 24 379.935 24.192 378.991 24.192C377.887 24.192 376.887 23.912 375.991 23.352C375.095 22.776 374.383 21.968 373.855 20.928C373.343 19.872 373.087 18.656 373.087 17.28ZM383.119 17.304C383.119 16.28 382.831 15.472 382.255 14.88C381.695 14.288 381.007 13.992 380.191 13.992C379.375 13.992 378.679 14.288 378.103 14.88C377.543 15.456 377.263 16.256 377.263 17.28C377.263 18.304 377.543 19.12 378.103 19.728C378.679 20.32 379.375 20.616 380.191 20.616C381.007 20.616 381.695 20.32 382.255 19.728C382.831 19.136 383.119 18.328 383.119 17.304ZM397.248 24.192C395.936 24.192 394.752 23.912 393.696 23.352C392.656 22.792 391.832 21.992 391.224 20.952C390.632 19.912 390.336 18.696 390.336 17.304C390.336 15.928 390.64 14.72 391.248 13.68C391.856 12.624 392.688 11.816 393.744 11.256C394.8 10.696 395.984 10.416 397.296 10.416C398.608 10.416 399.792 10.696 400.848 11.256C401.904 11.816 402.736 12.624 403.344 13.68C403.952 14.72 404.256 15.928 404.256 17.304C404.256 18.68 403.944 19.896 403.32 20.952C402.712 21.992 401.872 22.792 400.8 23.352C399.744 23.912 398.56 24.192 397.248 24.192ZM397.248 20.64C398.032 20.64 398.696 20.352 399.24 19.776C399.8 19.2 400.08 18.376 400.08 17.304C400.08 16.232 399.808 15.408 399.264 14.832C398.736 14.256 398.08 13.968 397.296 13.968C396.496 13.968 395.832 14.256 395.304 14.832C394.776 15.392 394.512 16.216 394.512 17.304C394.512 18.376 394.768 19.2 395.28 19.776C395.808 20.352 396.464 20.64 397.248 20.64ZM243.938 52.192C242.77 52.192 241.73 51.992 240.818 51.592C239.906 51.192 239.186 50.648 238.658 49.96C238.13 49.256 237.834 48.472 237.77 47.608H241.826C241.874 48.072 242.09 48.448 242.474 48.736C242.858 49.024 243.33 49.168 243.89 49.168C244.402 49.168 244.794 49.072 245.066 48.88C245.354 48.672 245.498 48.408 245.498 48.088C245.498 47.704 245.298 47.424 244.898 47.248C244.498 47.056 243.85 46.848 242.954 46.624C241.994 46.4 241.194 46.168 240.554 45.928C239.914 45.672 239.362 45.28 238.898 44.752C238.434 44.208 238.202 43.48 238.202 42.568C238.202 41.8 238.41 41.104 238.826 40.48C239.258 39.84 239.882 39.336 240.698 38.968C241.53 38.6 242.514 38.416 243.65 38.416C245.33 38.416 246.65 38.832 247.61 39.664C248.586 40.496 249.146 41.6 249.29 42.976H245.498C245.434 42.512 245.226 42.144 244.874 41.872C244.538 41.6 244.09 41.464 243.53 41.464C243.05 41.464 242.682 41.56 242.426 41.752C242.17 41.928 242.042 42.176 242.042 42.496C242.042 42.88 242.242 43.168 242.642 43.36C243.058 43.552 243.698 43.744 244.562 43.936C245.554 44.192 246.362 44.448 246.986 44.704C247.61 44.944 248.154 45.344 248.618 45.904C249.098 46.448 249.346 47.184 249.362 48.112C249.362 48.896 249.138 49.6 248.69 50.224C248.258 50.832 247.626 51.312 246.794 51.664C245.978 52.016 245.026 52.192 243.938 52.192ZM258.929 52.192C257.617 52.192 256.433 51.912 255.377 51.352C254.337 50.792 253.513 49.992 252.905 48.952C252.313 47.912 252.017 46.696 252.017 45.304C252.017 43.928 252.321 42.72 252.929 41.68C253.537 40.624 254.369 39.816 255.425 39.256C256.481 38.696 257.665 38.416 258.977 38.416C260.289 38.416 261.473 38.696 262.529 39.256C263.585 39.816 264.417 40.624 265.025 41.68C265.633 42.72 265.937 43.928 265.937 45.304C265.937 46.68 265.625 47.896 265.001 48.952C264.393 49.992 263.553 50.792 262.481 51.352C261.425 51.912 260.241 52.192 258.929 52.192ZM258.929 48.64C259.713 48.64 260.377 48.352 260.921 47.776C261.481 47.2 261.761 46.376 261.761 45.304C261.761 44.232 261.489 43.408 260.945 42.832C260.417 42.256 259.761 41.968 258.977 41.968C258.177 41.968 257.513 42.256 256.985 42.832C256.457 43.392 256.193 44.216 256.193 45.304C256.193 46.376 256.449 47.2 256.961 47.776C257.489 48.352 258.145 48.64 258.929 48.64ZM268.258 45.304C268.258 43.912 268.538 42.696 269.098 41.656C269.674 40.616 270.466 39.816 271.474 39.256C272.498 38.696 273.666 38.416 274.978 38.416C276.658 38.416 278.058 38.856 279.178 39.736C280.314 40.616 281.058 41.856 281.41 43.456H277.042C276.674 42.432 275.962 41.92 274.906 41.92C274.154 41.92 273.554 42.216 273.106 42.808C272.658 43.384 272.434 44.216 272.434 45.304C272.434 46.392 272.658 47.232 273.106 47.824C273.554 48.4 274.154 48.688 274.906 48.688C275.962 48.688 276.674 48.176 277.042 47.152H281.41C281.058 48.72 280.314 49.952 279.178 50.848C278.042 51.744 276.642 52.192 274.978 52.192C273.666 52.192 272.498 51.912 271.474 51.352C270.466 50.792 269.674 49.992 269.098 48.952C268.538 47.912 268.258 46.696 268.258 45.304ZM286.629 37.216C285.909 37.216 285.317 37.008 284.853 36.592C284.405 36.16 284.181 35.632 284.181 35.008C284.181 34.368 284.405 33.84 284.853 33.424C285.317 32.992 285.909 32.776 286.629 32.776C287.333 32.776 287.909 32.992 288.357 33.424C288.821 33.84 289.053 34.368 289.053 35.008C289.053 35.632 288.821 36.16 288.357 36.592C287.909 37.008 287.333 37.216 286.629 37.216ZM288.669 38.608V52H284.565V38.608H288.669ZM291.787 45.28C291.787 43.904 292.043 42.696 292.555 41.656C293.083 40.616 293.795 39.816 294.691 39.256C295.587 38.696 296.587 38.416 297.691 38.416C298.635 38.416 299.459 38.608 300.163 38.992C300.883 39.376 301.435 39.88 301.819 40.504V38.608H305.923V52H301.819V50.104C301.419 50.728 300.859 51.232 300.139 51.616C299.435 52 298.611 52.192 297.667 52.192C296.579 52.192 295.587 51.912 294.691 51.352C293.795 50.776 293.083 49.968 292.555 48.928C292.043 47.872 291.787 46.656 291.787 45.28ZM301.819 45.304C301.819 44.28 301.531 43.472 300.955 42.88C300.395 42.288 299.707 41.992 298.891 41.992C298.075 41.992 297.379 42.288 296.803 42.88C296.243 43.456 295.963 44.256 295.963 45.28C295.963 46.304 296.243 47.12 296.803 47.728C297.379 48.32 298.075 48.616 298.891 48.616C299.707 48.616 300.395 48.32 300.955 47.728C301.531 47.136 301.819 46.328 301.819 45.304ZM313.956 34.24V52H309.852V34.24H313.956Z" fill="#18185C"/>
<path d="M50.9778 17.024H44.6898L43.6818 20H39.3858L45.4818 3.152H50.2338L56.3298 20H51.9858L50.9778 17.024ZM49.9218 13.856L47.8338 7.688L45.7698 13.856H49.9218ZM63.2491 8.504C63.6491 7.88 64.2011 7.376 64.9051 6.992C65.6091 6.608 66.4331 6.416 67.3771 6.416C68.4811 6.416 69.4811 6.696 70.3771 7.256C71.2731 7.816 71.9771 8.616 72.4891 9.656C73.0171 10.696 73.2811 11.904 73.2811 13.28C73.2811 14.656 73.0171 15.872 72.4891 16.928C71.9771 17.968 71.2731 18.776 70.3771 19.352C69.4811 19.912 68.4811 20.192 67.3771 20.192C66.4491 20.192 65.6251 20 64.9051 19.616C64.2011 19.232 63.6491 18.736 63.2491 18.128V26.384H59.1451V6.608H63.2491V8.504ZM69.1051 13.28C69.1051 12.256 68.8171 11.456 68.2411 10.88C67.6811 10.288 66.9851 9.992 66.1531 9.992C65.3371 9.992 64.6411 10.288 64.0651 10.88C63.5051 11.472 63.2251 12.28 63.2251 13.304C63.2251 14.328 63.5051 15.136 64.0651 15.728C64.6411 16.32 65.3371 16.616 66.1531 16.616C66.9691 16.616 67.6651 16.32 68.2411 15.728C68.8171 15.12 69.1051 14.304 69.1051 13.28ZM80.4982 8.84C80.9782 8.104 81.5782 7.528 82.2982 7.112C83.0182 6.68 83.8182 6.464 84.6982 6.464V10.808H83.5702C82.5462 10.808 81.7782 11.032 81.2662 11.48C80.7542 11.912 80.4982 12.68 80.4982 13.784V20H76.3942V6.608H80.4982V8.84ZM100.244 13.088C100.244 13.472 100.22 13.872 100.172 14.288H90.8838C90.9478 15.12 91.2118 15.76 91.6758 16.208C92.1558 16.64 92.7398 16.856 93.4278 16.856C94.4518 16.856 95.1638 16.424 95.5638 15.56H99.9318C99.7078 16.44 99.2998 17.232 98.7078 17.936C98.1318 18.64 97.4038 19.192 96.5238 19.592C95.6438 19.992 94.6598 20.192 93.5718 20.192C92.2598 20.192 91.0918 19.912 90.0678 19.352C89.0438 18.792 88.2438 17.992 87.6678 16.952C87.0918 15.912 86.8038 14.696 86.8038 13.304C86.8038 11.912 87.0838 10.696 87.6438 9.656C88.2198 8.616 89.0198 7.816 90.0438 7.256C91.0678 6.696 92.2438 6.416 93.5718 6.416C94.8678 6.416 96.0198 6.688 97.0278 7.232C98.0358 7.776 98.8198 8.552 99.3798 9.56C99.9558 10.568 100.244 11.744 100.244 13.088ZM96.0438 12.008C96.0438 11.304 95.8038 10.744 95.3238 10.328C94.8438 9.912 94.2438 9.704 93.5238 9.704C92.8358 9.704 92.2518 9.904 91.7718 10.304C91.3078 10.704 91.0198 11.272 90.9078 12.008H96.0438ZM111.529 6.464C113.097 6.464 114.345 6.976 115.273 8C116.217 9.008 116.689 10.4 116.689 12.176V20H112.609V12.728C112.609 11.832 112.377 11.136 111.913 10.64C111.449 10.144 110.825 9.896 110.041 9.896C109.257 9.896 108.633 10.144 108.169 10.64C107.705 11.136 107.473 11.832 107.473 12.728V20H103.369V6.608H107.473V8.384C107.889 7.792 108.449 7.328 109.153 6.992C109.857 6.64 110.649 6.464 111.529 6.464ZM119.685 13.28C119.685 11.904 119.941 10.696 120.453 9.656C120.981 8.616 121.693 7.816 122.589 7.256C123.485 6.696 124.485 6.416 125.589 6.416C126.469 6.416 127.269 6.6 127.989 6.968C128.725 7.336 129.301 7.832 129.717 8.456V2.24H133.821V20H129.717V18.08C129.333 18.72 128.781 19.232 128.061 19.616C127.357 20 126.533 20.192 125.589 20.192C124.485 20.192 123.485 19.912 122.589 19.352C121.693 18.776 120.981 17.968 120.453 16.928C119.941 15.872 119.685 14.656 119.685 13.28ZM129.717 13.304C129.717 12.28 129.429 11.472 128.853 10.88C128.293 10.288 127.605 9.992 126.789 9.992C125.973 9.992 125.277 10.288 124.701 10.88C124.141 11.456 123.861 12.256 123.861 13.28C123.861 14.304 124.141 15.12 124.701 15.728C125.277 16.32 125.973 16.616 126.789 16.616C127.605 16.616 128.293 16.32 128.853 15.728C129.429 15.136 129.717 14.328 129.717 13.304ZM139.814 5.216C139.094 5.216 138.502 5.008 138.038 4.592C137.59 4.16 137.366 3.632 137.366 3.008C137.366 2.368 137.59 1.84 138.038 1.424C138.502 0.991999 139.094 0.775999 139.814 0.775999C140.518 0.775999 141.094 0.991999 141.542 1.424C142.006 1.84 142.238 2.368 142.238 3.008C142.238 3.632 142.006 4.16 141.542 4.592C141.094 5.008 140.518 5.216 139.814 5.216ZM141.854 6.608V20H137.75V6.608H141.854ZM149.628 16.616H155.436V20H145.044V16.736L150.612 9.992H145.092V6.608H155.316V9.872L149.628 16.616ZM157.838 13.28C157.838 11.904 158.094 10.696 158.606 9.656C159.134 8.616 159.846 7.816 160.742 7.256C161.638 6.696 162.638 6.416 163.742 6.416C164.686 6.416 165.51 6.608 166.214 6.992C166.934 7.376 167.486 7.88 167.87 8.504V6.608H171.974V20H167.87V18.104C167.47 18.728 166.91 19.232 166.19 19.616C165.486 20 164.662 20.192 163.718 20.192C162.63 20.192 161.638 19.912 160.742 19.352C159.846 18.776 159.134 17.968 158.606 16.928C158.094 15.872 157.838 14.656 157.838 13.28ZM167.87 13.304C167.87 12.28 167.582 11.472 167.006 10.88C166.446 10.288 165.758 9.992 164.942 9.992C164.126 9.992 163.43 10.288 162.854 10.88C162.294 11.456 162.014 12.256 162.014 13.28C162.014 14.304 162.294 15.12 162.854 15.728C163.43 16.32 164.126 16.616 164.942 16.616C165.758 16.616 166.446 16.32 167.006 15.728C167.582 15.136 167.87 14.328 167.87 13.304ZM175.087 13.28C175.087 11.904 175.343 10.696 175.855 9.656C176.383 8.616 177.095 7.816 177.991 7.256C178.887 6.696 179.887 6.416 180.991 6.416C181.871 6.416 182.671 6.6 183.391 6.968C184.127 7.336 184.703 7.832 185.119 8.456V2.24H189.223V20H185.119V18.08C184.735 18.72 184.183 19.232 183.463 19.616C182.759 20 181.935 20.192 180.991 20.192C179.887 20.192 178.887 19.912 177.991 19.352C177.095 18.776 176.383 17.968 175.855 16.928C175.343 15.872 175.087 14.656 175.087 13.28ZM185.119 13.304C185.119 12.28 184.831 11.472 184.255 10.88C183.695 10.288 183.007 9.992 182.191 9.992C181.375 9.992 180.679 10.288 180.103 10.88C179.543 11.456 179.263 12.256 179.263 13.28C179.263 14.304 179.543 15.12 180.103 15.728C180.679 16.32 181.375 16.616 182.191 16.616C183.007 16.616 183.695 16.32 184.255 15.728C184.831 15.136 185.119 14.328 185.119 13.304ZM199.248 20.192C197.936 20.192 196.752 19.912 195.696 19.352C194.656 18.792 193.832 17.992 193.224 16.952C192.632 15.912 192.336 14.696 192.336 13.304C192.336 11.928 192.64 10.72 193.248 9.68C193.856 8.624 194.688 7.816 195.744 7.256C196.8 6.696 197.984 6.416 199.296 6.416C200.608 6.416 201.792 6.696 202.848 7.256C203.904 7.816 204.736 8.624 205.344 9.68C205.952 10.72 206.256 11.928 206.256 13.304C206.256 14.68 205.944 15.896 205.32 16.952C204.712 17.992 203.872 18.792 202.8 19.352C201.744 19.912 200.56 20.192 199.248 20.192ZM199.248 16.64C200.032 16.64 200.696 16.352 201.24 15.776C201.8 15.2 202.08 14.376 202.08 13.304C202.08 12.232 201.808 11.408 201.264 10.832C200.736 10.256 200.08 9.968 199.296 9.968C198.496 9.968 197.832 10.256 197.304 10.832C196.776 11.392 196.512 12.216 196.512 13.304C196.512 14.376 196.768 15.2 197.28 15.776C197.808 16.352 198.464 16.64 199.248 16.64ZM51.4578 31.152V34.44H44.5938V37.992H49.7298V41.184H44.5938V48H40.4898V31.152H51.4578ZM60.6708 48.192C59.3588 48.192 58.1748 47.912 57.1188 47.352C56.0788 46.792 55.2548 45.992 54.6468 44.952C54.0548 43.912 53.7588 42.696 53.7588 41.304C53.7588 39.928 54.0628 38.72 54.6708 37.68C55.2788 36.624 56.1108 35.816 57.1668 35.256C58.2228 34.696 59.4068 34.416 60.7188 34.416C62.0308 34.416 63.2148 34.696 64.2708 35.256C65.3268 35.816 66.1588 36.624 66.7668 37.68C67.3748 38.72 67.6788 39.928 67.6788 41.304C67.6788 42.68 67.3668 43.896 66.7428 44.952C66.1348 45.992 65.2948 46.792 64.2228 47.352C63.1668 47.912 61.9828 48.192 60.6708 48.192ZM60.6708 44.64C61.4548 44.64 62.1188 44.352 62.6628 43.776C63.2228 43.2 63.5028 42.376 63.5028 41.304C63.5028 40.232 63.2308 39.408 62.6868 38.832C62.1588 38.256 61.5028 37.968 60.7188 37.968C59.9188 37.968 59.2548 38.256 58.7268 38.832C58.1988 39.392 57.9348 40.216 57.9348 41.304C57.9348 42.376 58.1908 43.2 58.7028 43.776C59.2308 44.352 59.8868 44.64 60.6708 44.64ZM74.9201 36.84C75.4001 36.104 76.0001 35.528 76.7201 35.112C77.4401 34.68 78.2401 34.464 79.1201 34.464V38.808H77.9921C76.9681 38.808 76.2001 39.032 75.6881 39.48C75.1761 39.912 74.9201 40.68 74.9201 41.784V48H70.8161V34.608H74.9201V36.84ZM99.1297 34.464C100.794 34.464 102.114 34.968 103.09 35.976C104.082 36.984 104.578 38.384 104.578 40.176V48H100.498V40.728C100.498 39.864 100.266 39.2 99.8017 38.736C99.3537 38.256 98.7297 38.016 97.9297 38.016C97.1297 38.016 96.4977 38.256 96.0337 38.736C95.5857 39.2 95.3617 39.864 95.3617 40.728V48H91.2817V40.728C91.2817 39.864 91.0497 39.2 90.5857 38.736C90.1377 38.256 89.5137 38.016 88.7137 38.016C87.9137 38.016 87.2817 38.256 86.8177 38.736C86.3697 39.2 86.1457 39.864 86.1457 40.728V48H82.0417V34.608H86.1457V36.288C86.5617 35.728 87.1057 35.288 87.7777 34.968C88.4497 34.632 89.2097 34.464 90.0577 34.464C91.0657 34.464 91.9617 34.68 92.7457 35.112C93.5457 35.544 94.1697 36.16 94.6177 36.96C95.0817 36.224 95.7137 35.624 96.5137 35.16C97.3137 34.696 98.1857 34.464 99.1297 34.464ZM107.592 41.28C107.592 39.904 107.848 38.696 108.36 37.656C108.888 36.616 109.6 35.816 110.496 35.256C111.392 34.696 112.392 34.416 113.496 34.416C114.44 34.416 115.264 34.608 115.968 34.992C116.688 35.376 117.24 35.88 117.624 36.504V34.608H121.728V48H117.624V46.104C117.224 46.728 116.664 47.232 115.944 47.616C115.24 48 114.416 48.192 113.472 48.192C112.384 48.192 111.392 47.912 110.496 47.352C109.6 46.776 108.888 45.968 108.36 44.928C107.848 43.872 107.592 42.656 107.592 41.28ZM117.624 41.304C117.624 40.28 117.336 39.472 116.76 38.88C116.2 38.288 115.512 37.992 114.696 37.992C113.88 37.992 113.184 38.288 112.608 38.88C112.048 39.456 111.768 40.256 111.768 41.28C111.768 42.304 112.048 43.12 112.608 43.728C113.184 44.32 113.88 44.616 114.696 44.616C115.512 44.616 116.2 44.32 116.76 43.728C117.336 43.136 117.624 42.328 117.624 41.304ZM129.761 30.24V48H125.657V30.24H129.761Z" fill="#18185C"/>
<rect x="38.0018" y="57" width="1000" height="95" fill="#97FF8B"/>
<rect x="217.002" y="57" width="221" height="95" fill="#FF994B"/>
<rect x="938.002" y="57" width="100" height="95" fill="#97FF8B"/>
<rect x="438.002" y="57" width="600" height="95" fill="#75B0FF"/>
<path d="M507.19 94.92L497.15 119H490.15L500.31 95.68H487.87V89.84H507.19V94.92ZM511.556 104C511.556 99.4133 512.436 95.8 514.196 93.16C515.983 90.52 518.849 89.2 522.796 89.2C526.743 89.2 529.596 90.52 531.356 93.16C533.143 95.8 534.036 99.4133 534.036 104C534.036 108.64 533.143 112.28 531.356 114.92C529.596 117.56 526.743 118.88 522.796 118.88C518.849 118.88 515.983 117.56 514.196 114.92C512.436 112.28 511.556 108.64 511.556 104ZM527.316 104C527.316 101.307 527.023 99.24 526.436 97.8C525.849 96.3333 524.636 95.6 522.796 95.6C520.956 95.6 519.743 96.3333 519.156 97.8C518.569 99.24 518.276 101.307 518.276 104C518.276 105.813 518.383 107.32 518.596 108.52C518.809 109.693 519.236 110.653 519.876 111.4C520.543 112.12 521.516 112.48 522.796 112.48C524.076 112.48 525.036 112.12 525.676 111.4C526.343 110.653 526.783 109.693 526.996 108.52C527.209 107.32 527.316 105.813 527.316 104ZM538.69 97.16C538.69 95 539.303 93.3333 540.53 92.16C541.783 90.9867 543.396 90.4 545.37 90.4C547.343 90.4 548.943 90.9867 550.17 92.16C551.396 93.3333 552.01 95 552.01 97.16C552.01 99.32 551.396 100.987 550.17 102.16C548.943 103.333 547.343 103.92 545.37 103.92C543.396 103.92 541.783 103.333 540.53 102.16C539.303 100.987 538.69 99.32 538.69 97.16ZM565.85 90.84L550.45 119H543.85L559.25 90.84H565.85ZM545.33 94.4C544.05 94.4 543.41 95.32 543.41 97.16C543.41 98.9733 544.05 99.88 545.33 99.88C545.943 99.88 546.423 99.6533 546.77 99.2C547.116 98.7467 547.29 98.0667 547.29 97.16C547.29 95.32 546.636 94.4 545.33 94.4ZM557.73 112.68C557.73 110.52 558.343 108.853 559.57 107.68C560.796 106.507 562.396 105.92 564.37 105.92C566.343 105.92 567.943 106.507 569.17 107.68C570.396 108.853 571.01 110.52 571.01 112.68C571.01 114.84 570.396 116.507 569.17 117.68C567.943 118.853 566.343 119.44 564.37 119.44C562.396 119.44 560.796 118.853 559.57 117.68C558.343 116.507 557.73 114.84 557.73 112.68ZM564.33 109.92C563.716 109.92 563.236 110.147 562.89 110.6C562.57 111.053 562.41 111.747 562.41 112.68C562.41 114.493 563.05 115.4 564.33 115.4C564.943 115.4 565.423 115.173 565.77 114.72C566.116 114.267 566.29 113.587 566.29 112.68C566.29 111.773 566.116 111.093 565.77 110.64C565.423 110.16 564.943 109.92 564.33 109.92Z" fill="#F2F7FF"/>
<path d="M249.587 113.52C250.493 112.8 250.907 112.467 250.827 112.52C253.44 110.36 255.493 108.587 256.987 107.2C258.507 105.813 259.787 104.36 260.827 102.84C261.867 101.32 262.387 99.84 262.387 98.4C262.387 97.3067 262.134 96.4533 261.627 95.84C261.12 95.2267 260.36 94.92 259.347 94.92C258.333 94.92 257.533 95.3067 256.947 96.08C256.387 96.8267 256.107 97.8933 256.107 99.28H249.507C249.56 97.0133 250.04 95.12 250.947 93.6C251.88 92.08 253.093 90.96 254.587 90.24C256.107 89.52 257.787 89.16 259.627 89.16C262.8 89.16 265.187 89.9733 266.787 91.6C268.414 93.2267 269.227 95.3467 269.227 97.96C269.227 100.813 268.254 103.467 266.307 105.92C264.36 108.347 261.88 110.72 258.867 113.04H269.667V118.6H249.587V113.52ZM274.278 104C274.278 99.4133 275.158 95.8 276.918 93.16C278.705 90.52 281.572 89.2 285.518 89.2C289.465 89.2 292.318 90.52 294.078 93.16C295.865 95.8 296.758 99.4133 296.758 104C296.758 108.64 295.865 112.28 294.078 114.92C292.318 117.56 289.465 118.88 285.518 118.88C281.572 118.88 278.705 117.56 276.918 114.92C275.158 112.28 274.278 108.64 274.278 104ZM290.038 104C290.038 101.307 289.745 99.24 289.158 97.8C288.572 96.3333 287.358 95.6 285.518 95.6C283.678 95.6 282.465 96.3333 281.878 97.8C281.292 99.24 280.998 101.307 280.998 104C280.998 105.813 281.105 107.32 281.318 108.52C281.532 109.693 281.958 110.653 282.598 111.4C283.265 112.12 284.238 112.48 285.518 112.48C286.798 112.48 287.758 112.12 288.398 111.4C289.065 110.653 289.505 109.693 289.718 108.52C289.932 107.32 290.038 105.813 290.038 104ZM301.412 97.16C301.412 95 302.025 93.3333 303.252 92.16C304.505 90.9867 306.119 90.4 308.092 90.4C310.065 90.4 311.665 90.9867 312.892 92.16C314.119 93.3333 314.732 95 314.732 97.16C314.732 99.32 314.119 100.987 312.892 102.16C311.665 103.333 310.065 103.92 308.092 103.92C306.119 103.92 304.505 103.333 303.252 102.16C302.025 100.987 301.412 99.32 301.412 97.16ZM328.572 90.84L313.172 119H306.572L321.972 90.84H328.572ZM308.052 94.4C306.772 94.4 306.132 95.32 306.132 97.16C306.132 98.9733 306.772 99.88 308.052 99.88C308.665 99.88 309.145 99.6533 309.492 99.2C309.839 98.7467 310.012 98.0667 310.012 97.16C310.012 95.32 309.359 94.4 308.052 94.4ZM320.452 112.68C320.452 110.52 321.065 108.853 322.292 107.68C323.519 106.507 325.119 105.92 327.092 105.92C329.065 105.92 330.665 106.507 331.892 107.68C333.119 108.853 333.732 110.52 333.732 112.68C333.732 114.84 333.119 116.507 331.892 117.68C330.665 118.853 329.065 119.44 327.092 119.44C325.119 119.44 323.519 118.853 322.292 117.68C321.065 116.507 320.452 114.84 320.452 112.68ZM327.052 109.92C326.439 109.92 325.959 110.147 325.612 110.6C325.292 111.053 325.132 111.747 325.132 112.68C325.132 114.493 325.772 115.4 327.052 115.4C327.665 115.4 328.145 115.173 328.492 114.72C328.839 114.267 329.012 113.587 329.012 112.68C329.012 111.773 328.839 111.093 328.492 110.64C328.145 110.16 327.665 109.92 327.052 109.92Z" fill="#F2F7FF"/>
<path d="M60.0131 96.16V89.8H71.0931V119H63.9731V96.16H60.0131ZM77.3721 104C77.3721 99.4133 78.2521 95.8 80.0121 93.16C81.7988 90.52 84.6655 89.2 88.6121 89.2C92.5588 89.2 95.4121 90.52 97.1721 93.16C98.9588 95.8 99.8521 99.4133 99.8521 104C99.8521 108.64 98.9588 112.28 97.1721 114.92C95.4121 117.56 92.5588 118.88 88.6121 118.88C84.6655 118.88 81.7988 117.56 80.0121 114.92C78.2521 112.28 77.3721 108.64 77.3721 104ZM93.1321 104C93.1321 101.307 92.8388 99.24 92.2521 97.8C91.6655 96.3333 90.4521 95.6 88.6121 95.6C86.7721 95.6 85.5588 96.3333 84.9721 97.8C84.3855 99.24 84.0921 101.307 84.0921 104C84.0921 105.813 84.1988 107.32 84.4121 108.52C84.6255 109.693 85.0521 110.653 85.6921 111.4C86.3588 112.12 87.3321 112.48 88.6121 112.48C89.8921 112.48 90.8521 112.12 91.4921 111.4C92.1588 110.653 92.5988 109.693 92.8121 108.52C93.0255 107.32 93.1321 105.813 93.1321 104ZM104.506 97.16C104.506 95 105.119 93.3333 106.346 92.16C107.599 90.9867 109.213 90.4 111.186 90.4C113.159 90.4 114.759 90.9867 115.986 92.16C117.213 93.3333 117.826 95 117.826 97.16C117.826 99.32 117.213 100.987 115.986 102.16C114.759 103.333 113.159 103.92 111.186 103.92C109.213 103.92 107.599 103.333 106.346 102.16C105.119 100.987 104.506 99.32 104.506 97.16ZM131.666 90.84L116.266 119H109.666L125.066 90.84H131.666ZM111.146 94.4C109.866 94.4 109.226 95.32 109.226 97.16C109.226 98.9733 109.866 99.88 111.146 99.88C111.759 99.88 112.239 99.6533 112.586 99.2C112.933 98.7467 113.106 98.0667 113.106 97.16C113.106 95.32 112.453 94.4 111.146 94.4ZM123.546 112.68C123.546 110.52 124.159 108.853 125.386 107.68C126.613 106.507 128.213 105.92 130.186 105.92C132.159 105.92 133.759 106.507 134.986 107.68C136.213 108.853 136.826 110.52 136.826 112.68C136.826 114.84 136.213 116.507 134.986 117.68C133.759 118.853 132.159 119.44 130.186 119.44C128.213 119.44 126.613 118.853 125.386 117.68C124.159 116.507 123.546 114.84 123.546 112.68ZM130.146 109.92C129.533 109.92 129.053 110.147 128.706 110.6C128.386 111.053 128.226 111.747 128.226 112.68C128.226 114.493 128.866 115.4 130.146 115.4C130.759 115.4 131.239 115.173 131.586 114.72C131.933 114.267 132.106 113.587 132.106 112.68C132.106 111.773 131.933 111.093 131.586 110.64C131.239 110.16 130.759 109.92 130.146 109.92Z" fill="#F2F7FF"/>
<path d="M687.158 174.373V176.233H683.458V188.273H681.178V176.233H677.458V174.373H687.158ZM700.367 182.493C700.367 182.906 700.34 183.28 700.287 183.613H691.867C691.933 184.493 692.26 185.2 692.847 185.733C693.433 186.266 694.153 186.533 695.007 186.533C696.233 186.533 697.1 186.02 697.607 184.993H700.067C699.733 186.006 699.127 186.84 698.247 187.493C697.38 188.133 696.3 188.453 695.007 188.453C693.953 188.453 693.007 188.22 692.167 187.753C691.34 187.273 690.687 186.606 690.207 185.753C689.74 184.886 689.507 183.886 689.507 182.753C689.507 181.62 689.733 180.626 690.187 179.773C690.653 178.906 691.3 178.24 692.127 177.773C692.967 177.306 693.927 177.073 695.007 177.073C696.047 177.073 696.973 177.3 697.787 177.753C698.6 178.206 699.233 178.846 699.687 179.673C700.14 180.486 700.367 181.426 700.367 182.493ZM697.987 181.773C697.973 180.933 697.673 180.26 697.087 179.753C696.5 179.246 695.773 178.993 694.907 178.993C694.12 178.993 693.447 179.246 692.887 179.753C692.327 180.246 691.993 180.92 691.887 181.773H697.987ZM716.751 177.073C717.617 177.073 718.391 177.253 719.071 177.613C719.764 177.973 720.304 178.506 720.691 179.213C721.091 179.92 721.291 180.773 721.291 181.773V188.273H719.031V182.113C719.031 181.126 718.784 180.373 718.291 179.853C717.797 179.32 717.124 179.053 716.271 179.053C715.417 179.053 714.737 179.32 714.231 179.853C713.737 180.373 713.491 181.126 713.491 182.113V188.273H711.231V182.113C711.231 181.126 710.984 180.373 710.491 179.853C709.997 179.32 709.324 179.053 708.471 179.053C707.617 179.053 706.937 179.32 706.431 179.853C705.937 180.373 705.691 181.126 705.691 182.113V188.273H703.411V177.253H705.691V178.513C706.064 178.06 706.537 177.706 707.111 177.453C707.684 177.2 708.297 177.073 708.951 177.073C709.831 177.073 710.617 177.26 711.311 177.633C712.004 178.006 712.537 178.546 712.911 179.253C713.244 178.586 713.764 178.06 714.471 177.673C715.177 177.273 715.937 177.073 716.751 177.073ZM727.272 178.873C727.658 178.366 728.185 177.94 728.852 177.593C729.518 177.246 730.272 177.073 731.112 177.073C732.072 177.073 732.945 177.313 733.732 177.793C734.532 178.26 735.158 178.92 735.612 179.773C736.065 180.626 736.292 181.606 736.292 182.713C736.292 183.82 736.065 184.813 735.612 185.693C735.158 186.56 734.532 187.24 733.732 187.733C732.945 188.213 732.072 188.453 731.112 188.453C730.272 188.453 729.525 188.286 728.872 187.953C728.218 187.606 727.685 187.18 727.272 186.673V193.513H724.992V177.253H727.272V178.873ZM733.972 182.713C733.972 181.953 733.812 181.3 733.492 180.753C733.185 180.193 732.772 179.773 732.252 179.493C731.745 179.2 731.198 179.053 730.612 179.053C730.038 179.053 729.492 179.2 728.972 179.493C728.465 179.786 728.052 180.213 727.732 180.773C727.425 181.333 727.272 181.993 727.272 182.753C727.272 183.513 727.425 184.18 727.732 184.753C728.052 185.313 728.465 185.74 728.972 186.033C729.492 186.326 730.038 186.473 730.612 186.473C731.198 186.473 731.745 186.326 732.252 186.033C732.772 185.726 733.185 185.286 733.492 184.713C733.812 184.14 733.972 183.473 733.972 182.713ZM744.126 188.453C743.086 188.453 742.146 188.22 741.306 187.753C740.466 187.273 739.806 186.606 739.326 185.753C738.846 184.886 738.606 183.886 738.606 182.753C738.606 181.633 738.853 180.64 739.346 179.773C739.84 178.906 740.513 178.24 741.366 177.773C742.22 177.306 743.173 177.073 744.226 177.073C745.28 177.073 746.233 177.306 747.086 177.773C747.94 178.24 748.613 178.906 749.106 179.773C749.6 180.64 749.846 181.633 749.846 182.753C749.846 183.873 749.593 184.866 749.086 185.733C748.58 186.6 747.886 187.273 747.006 187.753C746.14 188.22 745.18 188.453 744.126 188.453ZM744.126 186.473C744.713 186.473 745.26 186.333 745.766 186.053C746.286 185.773 746.706 185.353 747.026 184.793C747.346 184.233 747.506 183.553 747.506 182.753C747.506 181.953 747.353 181.28 747.046 180.733C746.74 180.173 746.333 179.753 745.826 179.473C745.32 179.193 744.773 179.053 744.186 179.053C743.6 179.053 743.053 179.193 742.546 179.473C742.053 179.753 741.66 180.173 741.366 180.733C741.073 181.28 740.926 181.953 740.926 182.753C740.926 183.94 741.226 184.86 741.826 185.513C742.44 186.153 743.206 186.473 744.126 186.473ZM760.056 175.793C759.642 175.793 759.296 175.653 759.016 175.373C758.736 175.093 758.596 174.746 758.596 174.333C758.596 173.92 758.736 173.573 759.016 173.293C759.296 173.013 759.642 172.873 760.056 172.873C760.456 172.873 760.796 173.013 761.076 173.293C761.356 173.573 761.496 173.92 761.496 174.333C761.496 174.746 761.356 175.093 761.076 175.373C760.796 175.653 760.456 175.793 760.056 175.793ZM761.176 177.253V188.273H758.896V177.253H761.176ZM770.529 177.073C771.396 177.073 772.169 177.253 772.849 177.613C773.542 177.973 774.082 178.506 774.469 179.213C774.856 179.92 775.049 180.773 775.049 181.773V188.273H772.789V182.113C772.789 181.126 772.542 180.373 772.049 179.853C771.556 179.32 770.882 179.053 770.029 179.053C769.176 179.053 768.496 179.32 767.989 179.853C767.496 180.373 767.249 181.126 767.249 182.113V188.273H764.969V177.253H767.249V178.513C767.622 178.06 768.096 177.706 768.669 177.453C769.256 177.2 769.876 177.073 770.529 177.073ZM783.017 186.233L786.137 177.253H788.557L784.357 188.273H781.637L777.457 177.253H779.897L783.017 186.233ZM801.181 182.493C801.181 182.906 801.154 183.28 801.101 183.613H792.681C792.748 184.493 793.074 185.2 793.661 185.733C794.248 186.266 794.968 186.533 795.821 186.533C797.048 186.533 797.914 186.02 798.421 184.993H800.881C800.548 186.006 799.941 186.84 799.061 187.493C798.194 188.133 797.114 188.453 795.821 188.453C794.768 188.453 793.821 188.22 792.981 187.753C792.154 187.273 791.501 186.606 791.021 185.753C790.554 184.886 790.321 183.886 790.321 182.753C790.321 181.62 790.548 180.626 791.001 179.773C791.468 178.906 792.114 178.24 792.941 177.773C793.781 177.306 794.741 177.073 795.821 177.073C796.861 177.073 797.788 177.3 798.601 177.753C799.414 178.206 800.048 178.846 800.501 179.673C800.954 180.486 801.181 181.426 801.181 182.493ZM798.801 181.773C798.788 180.933 798.488 180.26 797.901 179.753C797.314 179.246 796.588 178.993 795.721 178.993C794.934 178.993 794.261 179.246 793.701 179.753C793.141 180.246 792.808 180.92 792.701 181.773H798.801ZM808.225 188.453C807.358 188.453 806.578 188.3 805.885 187.993C805.205 187.673 804.665 187.246 804.265 186.713C803.865 186.166 803.651 185.56 803.625 184.893H805.985C806.025 185.36 806.245 185.753 806.645 186.073C807.058 186.38 807.571 186.533 808.185 186.533C808.825 186.533 809.318 186.413 809.665 186.173C810.025 185.92 810.205 185.6 810.205 185.213C810.205 184.8 810.005 184.493 809.605 184.293C809.218 184.093 808.598 183.873 807.745 183.633C806.918 183.406 806.245 183.186 805.725 182.973C805.205 182.76 804.751 182.433 804.365 181.993C803.991 181.553 803.805 180.973 803.805 180.253C803.805 179.666 803.978 179.133 804.325 178.653C804.671 178.16 805.165 177.773 805.805 177.493C806.458 177.213 807.205 177.073 808.045 177.073C809.298 177.073 810.305 177.393 811.065 178.033C811.838 178.66 812.251 179.52 812.305 180.613H810.025C809.985 180.12 809.785 179.726 809.425 179.433C809.065 179.14 808.578 178.993 807.965 178.993C807.365 178.993 806.905 179.106 806.585 179.333C806.265 179.56 806.105 179.86 806.105 180.233C806.105 180.526 806.211 180.773 806.425 180.973C806.638 181.173 806.898 181.333 807.205 181.453C807.511 181.56 807.965 181.7 808.565 181.873C809.365 182.086 810.018 182.306 810.525 182.533C811.045 182.746 811.491 183.066 811.865 183.493C812.238 183.92 812.431 184.486 812.445 185.193C812.445 185.82 812.271 186.38 811.925 186.873C811.578 187.366 811.085 187.753 810.445 188.033C809.818 188.313 809.078 188.453 808.225 188.453ZM818.368 179.113V185.213C818.368 185.626 818.462 185.926 818.648 186.113C818.848 186.286 819.182 186.373 819.648 186.373H821.048V188.273H819.248C818.222 188.273 817.435 188.033 816.888 187.553C816.342 187.073 816.068 186.293 816.068 185.213V179.113H814.768V177.253H816.068V174.513H818.368V177.253H821.048V179.113H818.368ZM825.11 175.793C824.696 175.793 824.35 175.653 824.07 175.373C823.79 175.093 823.65 174.746 823.65 174.333C823.65 173.92 823.79 173.573 824.07 173.293C824.35 173.013 824.696 172.873 825.11 172.873C825.51 172.873 825.85 173.013 826.13 173.293C826.41 173.573 826.55 173.92 826.55 174.333C826.55 174.746 826.41 175.093 826.13 175.373C825.85 175.653 825.51 175.793 825.11 175.793ZM826.23 177.253V188.273H823.95V177.253H826.23ZM829.263 182.713C829.263 181.606 829.49 180.626 829.943 179.773C830.41 178.92 831.036 178.26 831.823 177.793C832.623 177.313 833.51 177.073 834.483 177.073C835.203 177.073 835.91 177.233 836.603 177.553C837.31 177.86 837.87 178.273 838.283 178.793V173.473H840.583V188.273H838.283V186.613C837.91 187.146 837.39 187.586 836.723 187.933C836.07 188.28 835.316 188.453 834.463 188.453C833.503 188.453 832.623 188.213 831.823 187.733C831.036 187.24 830.41 186.56 829.943 185.693C829.49 184.813 829.263 183.82 829.263 182.713ZM838.283 182.753C838.283 181.993 838.123 181.333 837.803 180.773C837.496 180.213 837.09 179.786 836.583 179.493C836.076 179.2 835.53 179.053 834.943 179.053C834.356 179.053 833.81 179.2 833.303 179.493C832.796 179.773 832.383 180.193 832.063 180.753C831.756 181.3 831.603 181.953 831.603 182.713C831.603 183.473 831.756 184.14 832.063 184.713C832.383 185.286 832.796 185.726 833.303 186.033C833.823 186.326 834.37 186.473 834.943 186.473C835.53 186.473 836.076 186.326 836.583 186.033C837.09 185.74 837.496 185.313 837.803 184.753C838.123 184.18 838.283 183.513 838.283 182.753ZM849.158 188.453C848.118 188.453 847.178 188.22 846.338 187.753C845.498 187.273 844.838 186.606 844.358 185.753C843.878 184.886 843.638 183.886 843.638 182.753C843.638 181.633 843.884 180.64 844.378 179.773C844.871 178.906 845.544 178.24 846.398 177.773C847.251 177.306 848.204 177.073 849.258 177.073C850.311 177.073 851.264 177.306 852.118 177.773C852.971 178.24 853.644 178.906 854.138 179.773C854.631 180.64 854.878 181.633 854.878 182.753C854.878 183.873 854.624 184.866 854.118 185.733C853.611 186.6 852.918 187.273 852.038 187.753C851.171 188.22 850.211 188.453 849.158 188.453ZM849.158 186.473C849.744 186.473 850.291 186.333 850.798 186.053C851.318 185.773 851.738 185.353 852.058 184.793C852.378 184.233 852.538 183.553 852.538 182.753C852.538 181.953 852.384 181.28 852.078 180.733C851.771 180.173 851.364 179.753 850.858 179.473C850.351 179.193 849.804 179.053 849.218 179.053C848.631 179.053 848.084 179.193 847.578 179.473C847.084 179.753 846.691 180.173 846.398 180.733C846.104 181.28 845.958 181.953 845.958 182.753C845.958 183.94 846.258 184.86 846.858 185.513C847.471 186.153 848.238 186.473 849.158 186.473ZM874.027 182.493C874.027 182.906 874 183.28 873.947 183.613H865.527C865.594 184.493 865.92 185.2 866.507 185.733C867.094 186.266 867.814 186.533 868.667 186.533C869.894 186.533 870.76 186.02 871.267 184.993H873.727C873.394 186.006 872.787 186.84 871.907 187.493C871.04 188.133 869.96 188.453 868.667 188.453C867.614 188.453 866.667 188.22 865.827 187.753C865 187.273 864.347 186.606 863.867 185.753C863.4 184.886 863.167 183.886 863.167 182.753C863.167 181.62 863.394 180.626 863.847 179.773C864.314 178.906 864.96 178.24 865.787 177.773C866.627 177.306 867.587 177.073 868.667 177.073C869.707 177.073 870.634 177.3 871.447 177.753C872.26 178.206 872.894 178.846 873.347 179.673C873.8 180.486 874.027 181.426 874.027 182.493ZM871.647 181.773C871.634 180.933 871.334 180.26 870.747 179.753C870.16 179.246 869.434 178.993 868.567 178.993C867.78 178.993 867.107 179.246 866.547 179.753C865.987 180.246 865.654 180.92 865.547 181.773H871.647ZM890.411 177.073C891.277 177.073 892.051 177.253 892.731 177.613C893.424 177.973 893.964 178.506 894.351 179.213C894.751 179.92 894.951 180.773 894.951 181.773V188.273H892.691V182.113C892.691 181.126 892.444 180.373 891.951 179.853C891.457 179.32 890.784 179.053 889.931 179.053C889.077 179.053 888.397 179.32 887.891 179.853C887.397 180.373 887.151 181.126 887.151 182.113V188.273H884.891V182.113C884.891 181.126 884.644 180.373 884.151 179.853C883.657 179.32 882.984 179.053 882.131 179.053C881.277 179.053 880.597 179.32 880.091 179.853C879.597 180.373 879.351 181.126 879.351 182.113V188.273H877.071V177.253H879.351V178.513C879.724 178.06 880.197 177.706 880.771 177.453C881.344 177.2 881.957 177.073 882.611 177.073C883.491 177.073 884.277 177.26 884.971 177.633C885.664 178.006 886.197 178.546 886.571 179.253C886.904 178.586 887.424 178.06 888.131 177.673C888.837 177.273 889.597 177.073 890.411 177.073ZM903.887 182.713C903.887 181.606 904.114 180.626 904.567 179.773C905.034 178.92 905.661 178.26 906.447 177.793C907.247 177.313 908.127 177.073 909.087 177.073C909.954 177.073 910.707 177.246 911.347 177.593C912.001 177.926 912.521 178.346 912.907 178.853V177.253H915.207V188.273H912.907V186.633C912.521 187.153 911.994 187.586 911.327 187.933C910.661 188.28 909.901 188.453 909.047 188.453C908.101 188.453 907.234 188.213 906.447 187.733C905.661 187.24 905.034 186.56 904.567 185.693C904.114 184.813 903.887 183.82 903.887 182.713ZM912.907 182.753C912.907 181.993 912.747 181.333 912.427 180.773C912.121 180.213 911.714 179.786 911.207 179.493C910.701 179.2 910.154 179.053 909.567 179.053C908.981 179.053 908.434 179.2 907.927 179.493C907.421 179.773 907.007 180.193 906.687 180.753C906.381 181.3 906.227 181.953 906.227 182.713C906.227 183.473 906.381 184.14 906.687 184.713C907.007 185.286 907.421 185.726 907.927 186.033C908.447 186.326 908.994 186.473 909.567 186.473C910.154 186.473 910.701 186.326 911.207 186.033C911.714 185.74 912.121 185.313 912.427 184.753C912.747 184.18 912.907 183.513 912.907 182.753ZM921.282 178.873C921.669 178.366 922.195 177.94 922.862 177.593C923.529 177.246 924.282 177.073 925.122 177.073C926.082 177.073 926.955 177.313 927.742 177.793C928.542 178.26 929.169 178.92 929.622 179.773C930.075 180.626 930.302 181.606 930.302 182.713C930.302 183.82 930.075 184.813 929.622 185.693C929.169 186.56 928.542 187.24 927.742 187.733C926.955 188.213 926.082 188.453 925.122 188.453C924.282 188.453 923.535 188.286 922.882 187.953C922.229 187.606 921.695 187.18 921.282 186.673V193.513H919.002V177.253H921.282V178.873ZM927.982 182.713C927.982 181.953 927.822 181.3 927.502 180.753C927.195 180.193 926.782 179.773 926.262 179.493C925.755 179.2 925.209 179.053 924.622 179.053C924.049 179.053 923.502 179.2 922.982 179.493C922.475 179.786 922.062 180.213 921.742 180.773C921.435 181.333 921.282 181.993 921.282 182.753C921.282 183.513 921.435 184.18 921.742 184.753C922.062 185.313 922.475 185.74 922.982 186.033C923.502 186.326 924.049 186.473 924.622 186.473C925.209 186.473 925.755 186.326 926.262 186.033C926.782 185.726 927.195 185.286 927.502 184.713C927.822 184.14 927.982 183.473 927.982 182.713ZM935.637 178.853C935.97 178.293 936.41 177.86 936.957 177.553C937.517 177.233 938.177 177.073 938.937 177.073V179.433H938.357C937.463 179.433 936.783 179.66 936.317 180.113C935.863 180.566 935.637 181.353 935.637 182.473V188.273H933.357V177.253H935.637V178.853ZM951.932 182.493C951.932 182.906 951.906 183.28 951.852 183.613H943.432C943.499 184.493 943.826 185.2 944.412 185.733C944.999 186.266 945.719 186.533 946.572 186.533C947.799 186.533 948.666 186.02 949.172 184.993H951.632C951.299 186.006 950.692 186.84 949.812 187.493C948.946 188.133 947.866 188.453 946.572 188.453C945.519 188.453 944.572 188.22 943.732 187.753C942.906 187.273 942.252 186.606 941.772 185.753C941.306 184.886 941.072 183.886 941.072 182.753C941.072 181.62 941.299 180.626 941.752 179.773C942.219 178.906 942.866 178.24 943.692 177.773C944.532 177.306 945.492 177.073 946.572 177.073C947.612 177.073 948.539 177.3 949.352 177.753C950.166 178.206 950.799 178.846 951.252 179.673C951.706 180.486 951.932 181.426 951.932 182.493ZM949.552 181.773C949.539 180.933 949.239 180.26 948.652 179.753C948.066 179.246 947.339 178.993 946.472 178.993C945.686 178.993 945.012 179.246 944.452 179.753C943.892 180.246 943.559 180.92 943.452 181.773H949.552ZM960.536 177.073C961.403 177.073 962.176 177.253 962.856 177.613C963.549 177.973 964.089 178.506 964.476 179.213C964.863 179.92 965.056 180.773 965.056 181.773V188.273H962.796V182.113C962.796 181.126 962.549 180.373 962.056 179.853C961.563 179.32 960.889 179.053 960.036 179.053C959.183 179.053 958.503 179.32 957.996 179.853C957.503 180.373 957.256 181.126 957.256 182.113V188.273H954.976V177.253H957.256V178.513C957.629 178.06 958.103 177.706 958.676 177.453C959.263 177.2 959.883 177.073 960.536 177.073ZM968.004 182.713C968.004 181.606 968.231 180.626 968.684 179.773C969.151 178.92 969.778 178.26 970.564 177.793C971.364 177.313 972.251 177.073 973.224 177.073C973.944 177.073 974.651 177.233 975.344 177.553C976.051 177.86 976.611 178.273 977.024 178.793V173.473H979.324V188.273H977.024V186.613C976.651 187.146 976.131 187.586 975.464 187.933C974.811 188.28 974.058 188.453 973.204 188.453C972.244 188.453 971.364 188.213 970.564 187.733C969.778 187.24 969.151 186.56 968.684 185.693C968.231 184.813 968.004 183.82 968.004 182.713ZM977.024 182.753C977.024 181.993 976.864 181.333 976.544 180.773C976.238 180.213 975.831 179.786 975.324 179.493C974.818 179.2 974.271 179.053 973.684 179.053C973.098 179.053 972.551 179.2 972.044 179.493C971.538 179.773 971.124 180.193 970.804 180.753C970.498 181.3 970.344 181.953 970.344 182.713C970.344 183.473 970.498 184.14 970.804 184.713C971.124 185.286 971.538 185.726 972.044 186.033C972.564 186.326 973.111 186.473 973.684 186.473C974.271 186.473 974.818 186.326 975.324 186.033C975.831 185.74 976.238 185.313 976.544 184.753C976.864 184.18 977.024 183.513 977.024 182.753ZM984.279 175.793C983.866 175.793 983.519 175.653 983.239 175.373C982.959 175.093 982.819 174.746 982.819 174.333C982.819 173.92 982.959 173.573 983.239 173.293C983.519 173.013 983.866 172.873 984.279 172.873C984.679 172.873 985.019 173.013 985.299 173.293C985.579 173.573 985.719 173.92 985.719 174.333C985.719 174.746 985.579 175.093 985.299 175.373C985.019 175.653 984.679 175.793 984.279 175.793ZM985.399 177.253V188.273H983.119V177.253H985.399ZM991.213 186.413H996.213V188.273H988.573V186.413L993.593 179.113H988.573V177.253H996.213V179.113L991.213 186.413ZM998.647 182.713C998.647 181.606 998.873 180.626 999.327 179.773C999.793 178.92 1000.42 178.26 1001.21 177.793C1002.01 177.313 1002.89 177.073 1003.85 177.073C1004.71 177.073 1005.47 177.246 1006.11 177.593C1006.76 177.926 1007.28 178.346 1007.67 178.853V177.253H1009.97V188.273H1007.67V186.633C1007.28 187.153 1006.75 187.586 1006.09 187.933C1005.42 188.28 1004.66 188.453 1003.81 188.453C1002.86 188.453 1001.99 188.213 1001.21 187.733C1000.42 187.24 999.793 186.56 999.327 185.693C998.873 184.813 998.647 183.82 998.647 182.713ZM1007.67 182.753C1007.67 181.993 1007.51 181.333 1007.19 180.773C1006.88 180.213 1006.47 179.786 1005.97 179.493C1005.46 179.2 1004.91 179.053 1004.33 179.053C1003.74 179.053 1003.19 179.2 1002.69 179.493C1002.18 179.773 1001.77 180.193 1001.45 180.753C1001.14 181.3 1000.99 181.953 1000.99 182.713C1000.99 183.473 1001.14 184.14 1001.45 184.713C1001.77 185.286 1002.18 185.726 1002.69 186.033C1003.21 186.326 1003.75 186.473 1004.33 186.473C1004.91 186.473 1005.46 186.326 1005.97 186.033C1006.47 185.74 1006.88 185.313 1007.19 184.753C1007.51 184.18 1007.67 183.513 1007.67 182.753ZM1013 182.713C1013 181.606 1013.23 180.626 1013.68 179.773C1014.15 178.92 1014.77 178.26 1015.56 177.793C1016.36 177.313 1017.25 177.073 1018.22 177.073C1018.94 177.073 1019.65 177.233 1020.34 177.553C1021.05 177.86 1021.61 178.273 1022.02 178.793V173.473H1024.32V188.273H1022.02V186.613C1021.65 187.146 1021.13 187.586 1020.46 187.933C1019.81 188.28 1019.05 188.453 1018.2 188.453C1017.24 188.453 1016.36 188.213 1015.56 187.733C1014.77 187.24 1014.15 186.56 1013.68 185.693C1013.23 184.813 1013 183.82 1013 182.713ZM1022.02 182.753C1022.02 181.993 1021.86 181.333 1021.54 180.773C1021.23 180.213 1020.83 179.786 1020.32 179.493C1019.81 179.2 1019.27 179.053 1018.68 179.053C1018.09 179.053 1017.55 179.2 1017.04 179.493C1016.53 179.773 1016.12 180.193 1015.8 180.753C1015.49 181.3 1015.34 181.953 1015.34 182.713C1015.34 183.473 1015.49 184.14 1015.8 184.713C1016.12 185.286 1016.53 185.726 1017.04 186.033C1017.56 186.326 1018.11 186.473 1018.68 186.473C1019.27 186.473 1019.81 186.326 1020.32 186.033C1020.83 185.74 1021.23 185.313 1021.54 184.753C1021.86 184.18 1022.02 183.513 1022.02 182.753ZM1032.9 188.453C1031.86 188.453 1030.92 188.22 1030.08 187.753C1029.24 187.273 1028.58 186.606 1028.1 185.753C1027.62 184.886 1027.38 183.886 1027.38 182.753C1027.38 181.633 1027.62 180.64 1028.12 179.773C1028.61 178.906 1029.28 178.24 1030.14 177.773C1030.99 177.306 1031.94 177.073 1033 177.073C1034.05 177.073 1035 177.306 1035.86 177.773C1036.71 178.24 1037.38 178.906 1037.88 179.773C1038.37 180.64 1038.62 181.633 1038.62 182.753C1038.62 183.873 1038.36 184.866 1037.86 185.733C1037.35 186.6 1036.66 187.273 1035.78 187.753C1034.91 188.22 1033.95 188.453 1032.9 188.453ZM1032.9 186.473C1033.48 186.473 1034.03 186.333 1034.54 186.053C1035.06 185.773 1035.48 185.353 1035.8 184.793C1036.12 184.233 1036.28 183.553 1036.28 182.753C1036.28 181.953 1036.12 181.28 1035.82 180.733C1035.51 180.173 1035.1 179.753 1034.6 179.473C1034.09 179.193 1033.54 179.053 1032.96 179.053C1032.37 179.053 1031.82 179.193 1031.32 179.473C1030.82 179.753 1030.43 180.173 1030.14 180.733C1029.84 181.28 1029.7 181.953 1029.7 182.753C1029.7 183.94 1030 184.86 1030.6 185.513C1031.21 186.153 1031.98 186.473 1032.9 186.473Z" fill="#18185C"/>
<path d="M5.00012 158.14L1076.97 158.14" stroke="#18185C" stroke-width="10" stroke-linecap="round"/>
<path d="M1106.84 147.945L1066.16 124.457C1062.49 122.34 1057.91 124.987 1057.91 129.221L1057.91 176.195C1057.91 180.429 1062.49 183.075 1066.16 180.958L1106.84 157.471C1110.51 155.354 1110.51 150.061 1106.84 147.945Z" fill="#18185C" stroke="#18185C" stroke-linejoin="round"/>
</svg>
