<svg width="1440" height="1795" viewBox="0 0 1440 1795" fill="none" xmlns="http://www.w3.org/2000/svg">
<path d="M-146.407 1198.48C40.3865 953.26 -49.5914 533.348 60.7936 486.133C171.179 438.918 88.0919 1015.94 276.873 1237.35C465.654 1458.76 345.671 756.494 465.654 449.594C585.637 142.693 716.559 772.756 961.446 462.758C1206.33 152.76 964.001 104.76 818.001 856.76C672 1608.76 877.301 1344.11 961.447 1348.86C1045.59 1353.61 1128.15 1078.17 1206.33 1110.43C1284.52 1142.68 1296.41 1539.42 1379.3 1544.09C1462.19 1548.77 1461.71 1289.17 1538.95 1293.53" stroke="url(#paint0_linear_1052_857)" stroke-opacity="0.25" stroke-width="500" stroke-linecap="round" stroke-linejoin="round"/>
<defs>
<linearGradient id="paint0_linear_1052_857" x1="-191.965" y1="2217.06" x2="1481.54" y2="2311.44" gradientUnits="userSpaceOnUse">
<stop stop-color="#FF59F8"/>
<stop offset="0.197917" stop-color="#AE72FF"/>
<stop offset="0.40625" stop-color="#5BE0E6"/>
<stop offset="0.619792" stop-color="#5CD167"/>
<stop offset="0.825321" stop-color="#FFEE00"/>
</linearGradient>
</defs>
</svg>
