<svg width="1440" height="1795" viewBox="0 0 1440 1795" fill="none" xmlns="http://www.w3.org/2000/svg">
<path d="M-0.406632 1198.48C186.387 953.26 96.4091 533.348 206.794 486.133C317.179 438.918 234.092 1015.94 422.873 1237.35C611.655 1458.76 491.672 756.494 611.655 449.594C731.637 142.693 862.559 772.756 1107.45 462.758C1352.33 152.76 1110 104.76 964.001 856.76C818.001 1608.76 1023.3 1344.11 1107.45 1348.86C1191.59 1353.61 1274.15 1078.17 1352.33 1110.43C1430.52 1142.68 1442.41 1539.42 1525.3 1544.09C1608.19 1548.77 1607.71 1289.17 1684.95 1293.53" stroke="url(#paint0_linear_1052_857)" stroke-opacity="0.25" stroke-width="500" stroke-linecap="round" stroke-linejoin="round"/>
<defs>
<linearGradient id="paint0_linear_1052_857" x1="-45.9642" y1="2217.06" x2="1627.54" y2="2311.44" gradientUnits="userSpaceOnUse">
<stop stop-color="#FF59F8"/>
<stop offset="0.197917" stop-color="#AE72FF"/>
<stop offset="0.40625" stop-color="#5BE0E6"/>
<stop offset="0.619792" stop-color="#5CD167"/>
<stop offset="0.825321" stop-color="#FFEE00"/>
</linearGradient>
</defs>
</svg>
