<svg width="87" height="87" viewBox="0 0 87 87" fill="none" xmlns="http://www.w3.org/2000/svg">
<circle cx="43.5" cy="43.5" r="43.5" fill="#F4511E"/>
<path d="M28.9963 30.376H34.6923C35.2683 25.896 38.5323 22.824 43.9722 22.824C49.5403 22.824 52.4843 25.896 52.4843 30.312C52.4843 35.688 48.3243 38.056 40.5803 38.12H39.0443V42.984H40.5163C48.8363 42.984 53.3803 45.48 53.3803 52.008C53.3803 56.744 50.4363 60.392 44.2283 60.392C38.0843 60.392 34.5003 56.616 33.9243 51.688H28.2923C28.9963 60.648 35.5243 65.32 44.2923 65.32C53.9563 65.32 58.9482 59.688 58.9482 52.52C58.9482 45.864 55.3003 41.896 49.9243 40.616V40.296C54.7883 39.208 58.1163 35.048 58.1163 29.736C58.1163 23.08 53.1883 17.832 44.1643 17.832C35.5883 17.832 29.5723 22.44 28.9963 30.376Z" fill="white"/>
</svg>
