<svg width="1432" height="227" viewBox="0 0 1432 227" fill="none" xmlns="http://www.w3.org/2000/svg">
<path d="M2 183.512C151.156 142.633 117.924 77.0451 210.818 68.5034C303.713 59.9617 406.65 175.275 470.753 175.275C534.855 175.275 565.82 138.668 586.464 104.196C607.107 69.7237 648.393 2 726.077 2C803.761 2 841.788 73.9945 861.345 104.196C880.902 134.397 933.053 197.239 1005.85 197.239C1078.64 197.239 1100.37 161.978 1169.36 166.428C1238.36 170.878 1262.8 225 1334.51 225C1406.22 225 1393.18 183.512 1460 183.512" stroke="url(#paint0_linear_1052_787)" stroke-width="3" stroke-linecap="round" stroke-linejoin="round"/>
<defs>
<linearGradient id="paint0_linear_1052_787" x1="12.2545" y1="346.72" x2="1460" y2="346.72" gradientUnits="userSpaceOnUse">
<stop stop-color="#FF59F8"/>
<stop offset="0.197917" stop-color="#AE72FF"/>
<stop offset="0.40625" stop-color="#5BE0E6"/>
<stop offset="0.619792" stop-color="#5CD167"/>
<stop offset="0.825321" stop-color="#FFEE00"/>
</linearGradient>
</defs>
</svg>
